<svg width="1971" height="290" fill="none" xmlns="http://www.w3.org/2000/svg"><path d="M111.9 215.602c-21.3 0-40.5-4.6-57.5-13.8-17.1-9.2-30.5-21.9-40.2-38.2-9.5-16.5-14.2-35.2-14.2-55.9 0-20.8 4.7-39.3 14.2-55.6 9.7-16.3 23.1-29 40.2-38.2 17.1-9.2 36.3-13.8 57.5-13.8 21.5 0 40.9 4.6 57.9 13.8 17.1 9.2 30.3 21.9 39.8 38.2 9.7 16.3 14.6 34.8 14.6 55.6 0 20.8-4.9 39.4-14.6 56-9.5 16.3-22.7 29-39.8 38.2-17 9.2-36.3 13.7-57.9 13.7zm0-42.1c18.1 0 33.1-6 44.9-18.1 11.8-12.1 17.7-28 17.7-47.7 0-19.7-5.9-35.6-17.7-47.7-11.8-12.1-26.8-18.1-44.9-18.1-18.1 0-33.1 6-44.9 18.1-11.6 12.1-17.3 28-17.3 47.7 0 19.7 5.8 35.6 17.3 47.7 11.8 12 26.8 18.1 44.9 18.1zM382.2.102c20.5 0 38.8 4.5 54.8 13.4 16.3 8.9 29 21.5 38.2 37.8 9.2 16.3 13.8 35.1 13.8 56.4 0 21.3-4.6 40.2-13.8 56.8-9.2 16.3-21.9 28.9-38.2 37.8-16 8.9-34.3 13.4-54.8 13.4-22.2 0-40.8-5.8-55.8-17.4-4.4-3.4-11.6-.5-11.6 5v80.1c0 3.3-2.7 6-6 6h-37.3c-3.3 0-6-2.7-6-6v-275c0-3.3 2.7-6 6-6h34.9c3.3 0 6 2.7 6 6v4.7c0 5.6 7.5 8.5 11.9 5 5.4-4.3 11.4-7.9 18-10.6 12.2-4.9 25.4-7.4 39.9-7.4zm-5.5 173.4c18.1 0 33-6 44.5-18.1 11.8-12.1 17.7-28 17.7-47.7 0-19.7-5.9-35.6-17.7-47.7-11.6-12.1-26.4-18.1-44.5-18.1-11.8 0-22.5 2.8-31.9 8.3-9.5 5.3-16.9 12.9-22.5 22.9-5.6 10-8.3 21.5-8.3 34.7 0 13.1 2.8 24.7 8.3 34.7 5.5 10 13 17.7 22.5 23.3 9.4 5 20 7.7 31.9 7.7zM743.4 108.802c0 2.3-.1 5.4-.4 9.1-.2 3.1-2.8 5.5-5.9 5.5H584.7c-3.8 0-6.6 3.4-5.5 7 3.7 12.3 10.6 22.3 20.8 30 12.4 8.9 27.6 13.4 45.7 13.4 20.8 0 38.2-6.1 52.4-18.4 2.6-2.3 6.7-2.2 9 .5l18.8 21.6c1.9 2.2 2 5.5 0 7.7-8.9 9.4-19.7 16.7-32.5 21.8-14.5 5.8-30.7 8.7-48.9 8.7-23.1 0-43.5-4.6-61.1-13.8-17.6-9.2-31.3-21.9-41-38.2-9.5-16.6-14.2-35.2-14.2-56 0-20.5 4.6-38.9 13.8-55.2 9.5-16.6 22.5-29.4 39-38.6 16.6-9.2 35.2-13.8 56-13.8 20.5 0 38.8 4.6 54.8 13.8 16.3 8.9 28.9 21.7 37.8 38.2 9.2 16.3 13.8 35.2 13.8 56.7zM637 39.502c-15.8 0-29.2 4.7-40.2 14.2-9.1 7.8-15.2 17.9-18.3 30.2-.9 3.6 1.9 6.8 5.6 6.8h105.6c3.6 0 6.5-3.2 5.6-6.8-2.9-12.2-8.9-22.3-18-30.3-10.8-9.4-24.3-14.1-40.3-14.1zM910.2.102c26.5 0 47.8 7.8 63.9 23.3 16 15.5 24 38.5 24 69v114.6c0 3.3-2.7 6-6 6h-37.3c-3.3 0-6-2.7-6-6v-108.4c0-18.4-4.3-32.2-13-41.4-8.7-9.5-21-14.2-37-14.2-18.1 0-32.5 5.5-43 16.6-10.5 10.7-15.8 26.4-15.8 46.9v100.4c0 3.3-2.7 6-6 6h-37.3c-3.3 0-6-2.7-6-6V8.402c0-3.3 2.7-6 6-6h34.9c3.3 0 6 2.7 6 6v4.7c0 5.6 7.4 8.5 11.9 5.1 5.6-4.3 11.9-7.9 18.9-10.7 12.4-4.9 26.3-7.4 41.8-7.4zM1456.7.102c31 0 54.7 7.5 70.9 22.5 16.6 14.7 24.8 37 24.8 67v117.4c0 3.3-2.7 6-6 6h-34.6c-3.3 0-5.9-2.6-5.9-5.9 0-5.9-8.8-9-13.6-5.6-3.7 2.7-7.9 5.1-12.4 7.1-11 4.7-24.4 7.1-40.2 7.1-15.8 0-29.6-2.6-41.4-7.9-11.8-5.5-21-13-27.6-22.5-6.3-9.7-9.5-20.6-9.5-32.7 0-18.9 7-34 20.9-45.3 14.2-11.6 36.4-17.3 66.6-17.3h51.2c1.7 0 3.2-1.4 3.2-3.2 0-14.7-4.5-26-13.4-33.9-8.7-7.9-21.7-11.8-39-11.8-11.8 0-23.5 1.8-35.1 5.5-8.6 2.8-16.3 6.5-22.9 11-3.1 2.1-7.6 1.3-9.3-2.1l-13.4-24.9c-1.4-2.6-.7-5.8 1.7-7.5 10.2-7 22.1-12.4 35.7-16.3 15.5-4.5 31.9-6.7 49.3-6.7zm-6.8 179.7c12.4 0 23.3-2.8 32.7-8.3 9.4-5.6 16.1-13.4 20.1-23.4.3-.7.4-1.4.4-2.1v-17.3c0-3.3-2.7-6-6-6h-44.8c-28.4 0-42.6 9.3-42.6 28 0 8.9 3.6 16 10.6 21.3 7.2 5.2 17 7.8 29.6 7.8zM1654.7 12.7c0 6 8.9 9 13.5 5.2 13.5-11 31.9-16.9 55.4-17.8 3.3-.1 6 2.6 6 5.9v33.7c0 3.8-3.4 6.6-7.2 6.2-1.5-.1-2.9-.2-4.3-.2-19.2 0-34.2 5.6-44.9 16.9-10.8 11-16.2 27.1-16.2 48.1v96.1c0 3.3-2.7 6-6 6h-37.3c-3.3 0-6-2.7-6-6V8.4c0-3.3 2.7-6 6-6h34.9c3.3 0 6 2.7 6 6v4.3h.1zM1971 108.802c0 2.3-.1 5.4-.4 9.1-.2 3.1-2.8 5.5-5.9 5.5h-152.4c-3.8 0-6.6 3.4-5.5 7 3.7 12.3 10.6 22.3 20.8 30 12.3 8.9 27.6 13.4 45.7 13.4 20.8 0 38.2-6.1 52.4-18.4 2.6-2.3 6.7-2.2 9 .5l18.8 21.6c1.9 2.2 2 5.5 0 7.7-8.9 9.4-19.7 16.7-32.5 21.8-14.4 5.8-30.7 8.7-48.9 8.7-23.1 0-43.5-4.6-61.1-13.8-17.6-9.2-31.3-21.9-41-38.2-9.5-16.6-14.2-35.2-14.2-56 0-20.5 4.6-38.9 13.8-55.2 9.5-16.6 22.5-29.4 39-38.6 16.6-9.2 35.2-13.8 56-13.8 20.5 0 38.8 4.6 54.8 13.8 16.3 8.9 28.9 21.7 37.8 38.2 9.2 16.3 13.8 35.2 13.8 56.7zm-106.4-69.3c-15.8 0-29.2 4.7-40.2 14.2-9.1 7.8-15.2 17.9-18.3 30.2-.9 3.6 1.9 6.8 5.6 6.8h105.5c3.6 0 6.5-3.2 5.6-6.8-2.9-12.2-8.9-22.3-18-30.3-10.8-9.4-24.2-14.1-40.2-14.1z" fill="#2704E2"/><path d="M1260.3 3.1c2.2-3 4.5-3.1 7.7-3.1l36.7.2c4.9 0 10.2 4.6 8.5 9.5l-136.6 197.2c-3.9 5.3-8.6 4.8-11.8 4.8l-39-.2c-2.9 0-6.6-4.7-3.5-9.2l138-199.2z" fill="#1BE6E6"/><path d="M1173.4 202c2.6 6.3.9 9.8-1.9 9.8h-45.6c-3 0-5.6-2-6.6-4.9L1027.9 9.8c-1.6-4.9 1.9-9.8 6.6-9.8h39.1c3 0 5.6 2 6.8 4.9l93 197.1zM1294.1 202c2.6 6.3.9 9.8-1.9 9.8H1244c-2.8 0-5.6-2-6.6-4.9L1142.8 9.8c-1.7-4.9 1.6-9.8 6.6-9.8h41.8c3.1 0 5.6 2 6.6 4.9l96.3 197.1zM1336.5 46.1c3.5 7.8-.9 9.8-3.8 9.8h-39.6c-2.8 0-7.5-1.7-8.9-4.9l-22.8-41.2c-3.1-6.1-.7-9.8 4.2-9.8h39.1c3.1 0 7.3 1.7 8.9 4.9l22.9 41.2z" fill="#2704E2"/></svg>